<svg xmlns="http://www.w3.org/2000/svg" width="566.93" height="93.754" viewBox="0 0 566.93 93.754"><path fill="#041E42" d="M264.588 54.663h-23.774l11.884-31.01 11.89 31.01zm111.16 35.166h37.5V3.803h-32.235v45.34l-33.946-45.34h-40.81V73.95l-27.08-70.146h-52.333l-19.63 50.86H175.25c-1.592 10.165-7.476 15.556-17.77 15.556-11.89 0-18.51-9.19-18.51-23.403s6.748-23.286 18.51-23.286c9.684 0 15.93 5.152 17.28 13.487h35.42v-2.334C210.178 15.688 193.748 0 157.846 0c-38.73 0-53.437 19.365-53.437 46.816 0 .63.02 1.25.033 1.875-4.858-5.907-14.18-9.35-29.565-11.556l-22.426-3.188c-8.457-1.22-13.726-2.197-13.726-6.367 0-3.556 3.306-7.36 12.505-7.36 10.172 0 15.812 3.927 15.812 10.3h36.025v-1.837C103.067 11.52 85.91.245 52.203.245 17.53.245 2.325 12.872 2.325 30.64c0 13.85 9.067 21.94 30.39 24.883l25.372 3.545c9.067 1.23 12.012 3.066 12.012 6.865 0 4.902-4.66 7.607-15.08 7.607-11.762 0-17.147-5.03-17.147-12.012H0v1.963C0 82.603 18.013 93.63 53.433 93.63c32.73 0 51.704-7.227 54.814-25.488 6.548 15.674 21.948 25.615 49.6 25.615 20.97 0 32.738-5.713 39.803-14.326l-4.013 10.4h33.696l4.78-12.374h41.176l4.78 12.373h60.423V40.316L375.75 89.83zm143.38-35.167h-23.77l11.884-31.01 11.885 31.01zM566.93 89.83L533.717 3.803h-52.334l-27.08 70.146V3.794h-32.968V89.83h60.537l4.776-12.374h41.182l4.785 12.373h34.317z"/><path fill="none" d="M255.118 24.22h188.62v45.29h-188.62z"/></svg>